<svg width="381" height="163" viewBox="0 0 381 163" fill="none" xmlns="http://www.w3.org/2000/svg">
<path d="M78.0156 -7.604L83.224 -11.3071C83.224 -11.3071 84.901 -6.34359 86.5833 -2.89046C88.2604 0.557455 90.4427 3.50537 90.4427 3.50537L85.3229 7.96371C85.3229 7.96371 83.0521 4.84912 81.0365 0.307455C78.9375 -4.07275 78.0156 -7.604 78.0156 -7.604Z" fill="#F20064"/>
<path d="M32.2246 95.5988C32.2246 95.5988 35.334 93.6613 36.8444 93.1561C38.3548 92.6509 39.11 93.1561 39.11 93.1561C39.11 93.1561 38.61 88.6978 35.6673 84.2394C32.7298 79.8592 30.3757 77.3384 30.3757 77.3384L25.2559 80.4478C25.2559 80.4478 27.7715 83.3957 29.959 87.7707C32.1413 92.0623 32.2246 95.5988 32.2246 95.5988Z" fill="#179BD7"/>
<path d="M41.8809 131.364C41.8809 131.364 45.3288 129.094 47.0892 125.729C48.8548 122.359 49.2715 118.995 49.2715 118.995L54.4798 122.026C54.4798 122.026 54.5632 125.729 51.5423 129.849C48.5163 133.974 46.1673 134.734 46.1673 134.734L41.8809 131.364Z" fill="#F20064"/>
<path d="M54.1406 37.4373L57.25 42.8228C57.25 42.8228 62.1198 40.9738 65.0573 38.7863C68 36.5988 69.7604 33.4009 69.7604 33.4009L65.2292 28.1821C65.2292 28.1821 63.4635 31.0415 60.776 33.5675C57.9219 36.0936 54.1406 37.4373 54.1406 37.4373Z" fill="#3DCD51"/>
<path d="M196.406 66.1564L200.776 61.8647L213.203 70.7814L208.417 75.8335L196.406 66.1564Z" fill="#179BD7"/>
<path d="M121.068 4.46354L126.193 1.51562C126.193 1.51562 128.042 4.88542 129.469 6.65104C130.896 8.41667 134.339 11.1927 134.339 11.1927L130.475 16.2448C130.475 16.2448 126.699 13.974 124.094 10.6875C121.49 7.40625 121.068 4.46354 121.068 4.46354Z" fill="#3DCD51"/>
<path d="M238.916 4.92204L243.286 8.96371C243.286 8.96371 246.562 6.521 248.156 2.98975C249.671 -0.546711 250.088 -2.81755 250.088 -2.81755L245.723 -5.93213C245.723 -5.93213 245.551 -3.6613 243.369 -0.124837C241.187 3.57829 238.916 4.92204 238.916 4.92204Z" fill="#179BD7"/>
<path d="M331.058 50.5988L335.761 45.7186C335.761 45.7186 330.891 40.8384 328.287 38.3957C325.683 35.953 323.839 35.1978 323.839 35.1978L319.053 39.2394C319.053 39.2394 321.907 41.005 324.173 43.4478C326.443 45.8853 331.058 50.5988 331.058 50.5988Z" fill="#3DCD51"/>
<path d="M312.203 106.375L317.745 103.177L325.724 115.886L320.682 119.505L312.203 106.375Z" fill="#F20064"/>
<path d="M357.162 104.016L358.589 109.906C358.589 109.906 363.714 107.464 366.402 105.443C369.173 103.344 371.021 100.229 371.021 100.229L367.829 96.6929C367.829 96.6929 365.896 99.4689 362.959 101.49C360.016 103.511 357.162 104.016 357.162 104.016Z" fill="#179BD7"/>
<path d="M171.881 47.9894L176.751 50.5988C176.751 50.5988 178.6 46.6457 179.355 43.3592C180.027 40.078 179.605 38.3957 179.605 38.3957L174.396 35.1978C174.396 35.1978 175.24 38.229 174.396 41.4269C173.558 44.6248 171.881 47.9894 171.881 47.9894Z" fill="#3DCD51"/>
<path d="M173.281 145.271L177.729 149.984C177.729 149.984 180.922 145.865 182.854 141.99C184.786 138.12 185.208 135.932 185.208 135.932L181.344 132.734C181.344 132.734 181.26 134.583 178.49 138.875C175.797 143.255 173.281 145.271 173.281 145.271Z" fill="#F20064"/>
<path d="M343.844 143.609L341.828 149.333C341.828 149.333 345.099 151.521 349.385 152.026C353.75 152.531 357.109 151.521 357.109 151.521V145.63C357.109 145.63 352.24 145.464 349.047 145.208C345.859 144.958 343.844 143.609 343.844 143.609Z" fill="#F20064"/>
<path d="M68.8594 84.9168L72.3021 80.4585L84.1458 86.1825L82.4635 92.0731C82.4635 92.0731 78.4323 91.5679 74.651 89.547C70.7917 87.5262 68.8594 84.9168 68.8594 84.9168Z" fill="#3DCD51"/>
<mask id="mask0_25428_1075" style="mask-type:luminance" maskUnits="userSpaceOnUse" x="0" y="134" width="18" height="17">
<path d="M0 134.646H17.7031V150.646H0V134.646Z" fill="white"/>
</mask>
<g mask="url(#mask0_25428_1075)">
<path d="M0.00585938 142.256L1.18294 149.828C1.18294 149.828 6.30274 147.808 9.91732 145.703C13.5267 143.599 16.3809 140.823 16.3809 140.823L12.8548 135.354L0.00585938 142.256Z" fill="#3DCD51"/>
</g>
<path d="M302.027 144.724L307.568 142.198C307.568 142.198 304.459 137.823 303.115 133.11C301.771 128.396 302.027 125.365 302.027 125.365L295.225 127.469C295.225 127.469 295.308 130.75 297.49 135.969C299.756 141.271 302.027 144.724 302.027 144.724Z" fill="#179BD7"/>
<path d="M235.303 157.078L237.402 162.63C237.402 162.63 242.527 161.115 245.886 157.917C249.245 154.719 250.167 152.365 250.167 152.365L247.063 147.818C247.063 147.818 245.803 151.104 242.527 153.625C239.167 156.235 235.303 157.078 235.303 157.078Z" fill="#3DCD51"/>
<path d="M115.172 110.51L117.943 117.833C117.943 117.833 122.312 115.307 126.594 112.443C130.964 109.583 132.391 107.562 132.391 107.562L128.859 101.167C128.859 101.167 126.76 103.437 123.068 106.302C119.203 109.161 115.172 110.51 115.172 110.51Z" fill="#3DCD51"/>
</svg>
