<svg width="44" height="34" viewBox="0 0 44 34" fill="none" xmlns="http://www.w3.org/2000/svg">
<path d="M37.4577 1.2915H6.45768C3.60421 1.2915 1.29102 3.6047 1.29102 6.45817V27.1248C1.29102 29.9783 3.60421 32.2915 6.45768 32.2915H37.4577C40.3112 32.2915 42.6243 29.9783 42.6243 27.1248V6.45817C42.6243 3.6047 40.3112 1.2915 37.4577 1.2915Z" stroke="#FDFDFD" stroke-width="2.58333"/>
<path d="M19.6482 18.2201L1.29102 9.0415V27.1248C1.29102 28.4951 1.83536 29.8093 2.8043 30.7782C3.77323 31.7472 5.0874 32.2915 6.45768 32.2915H37.4577C38.828 32.2915 40.1421 31.7472 41.1111 30.7782C42.08 29.8093 42.6243 28.4951 42.6243 27.1248V9.0415L24.2672 18.2201C23.55 18.5784 22.7594 18.765 21.9577 18.765C21.156 18.765 20.3653 18.5784 19.6482 18.2201Z" fill="#FDFDFD"/>
</svg>
